<?xml version="1.0" encoding="UTF-8" standalone="no"?>
<svg
   xmlns:dc="http://purl.org/dc/elements/1.1/"
   xmlns:cc="http://creativecommons.org/ns#"
   xmlns:rdf="http://www.w3.org/1999/02/22-rdf-syntax-ns#"
   xmlns:svg="http://www.w3.org/2000/svg"
   xmlns="http://www.w3.org/2000/svg"
   xmlns:sodipodi="http://sodipodi.sourceforge.net/DTD/sodipodi-0.dtd"
   xmlns:inkscape="http://www.inkscape.org/namespaces/inkscape"
   version="1.1"
   id="svg78"
   width="200"
   height="200"
   viewBox="0 0 200 200"
   sodipodi:docname="espruino.svg"
   inkscape:version="1.0.1 (3bc2e813f5, 2020-09-07)">
  <metadata
     id="metadata84">
    <rdf:RDF>
      <cc:Work
         rdf:about="">
        <dc:format>image/svg+xml</dc:format>
        <dc:type
           rdf:resource="http://purl.org/dc/dcmitype/StillImage" />
        <dc:title></dc:title>
      </cc:Work>
    </rdf:RDF>
  </metadata>
  <defs
     id="defs82" />
  <sodipodi:namedview
     pagecolor="#ffffff"
     bordercolor="#666666"
     borderopacity="1"
     objecttolerance="10"
     gridtolerance="10"
     guidetolerance="10"
     inkscape:pageopacity="0"
     inkscape:pageshadow="2"
     inkscape:window-width="2560"
     inkscape:window-height="1370"
     id="namedview80"
     showgrid="false"
     inkscape:zoom="3.855"
     inkscape:cx="101.29702"
     inkscape:cy="100"
     inkscape:window-x="1920"
     inkscape:window-y="0"
     inkscape:window-maximized="1"
     inkscape:current-layer="g86" />
  <g
     inkscape:groupmode="layer"
     inkscape:label="Image"
     id="g86">
    <path
       style="fill:#000000"
       d="m 71.643374,180.53856 c -0.785644,-0.31013 -3.383426,-2.05614 -5.772848,-3.88003 -5.176843,-3.95157 -7.330342,-4.40686 -22.160053,-4.68507 l -11.361345,-0.21314 -2.934239,-3.5 C 25.849605,164.0076 10.901115,140.25663 9.5451805,136.69025 c -1.635429,-4.3015 -1.144631,-11.63676 1.0156785,-15.17993 1.08986,-1.7875 2.386904,-3.25 2.88232,-3.25 0.495416,0 1.591331,-1.4625 2.435366,-3.25 1.323444,-2.80279 1.413806,-6.34604 0.656691,-25.74999 -1.244256,-31.88885 -1.181357,-51.427572 0.17514,-54.404758 0.626207,-1.374374 2.634222,-3.208601 4.462256,-4.07606 1.846439,-0.876192 17.45216,-3.564011 35.111442,-6.047346 17.48326,-2.458582 36.737742,-5.178662 42.787752,-6.044621 6.050004,-0.86596 14.830924,-1.604856 19.513174,-1.641993 11.45503,-0.09085 14.26035,1.466626 25.28714,14.039073 4.84017,5.518633 10.5856,11.646786 12.76763,13.618115 l 3.96733,3.58424 8.96325,-0.16257 c 8.34914,-0.15144 9.24381,0.0318 13.05825,2.67526 7.24829,5.02306 7.94323,7.60054 7.94323,29.46066 0,17.01626 -0.21328,19.49772 -1.9721,22.9453 -2.51881,4.93728 -5.83113,7.51292 -12.33448,9.59123 -5.63973,1.80231 -8.69342,4.51694 -8.69342,7.72814 0,1.12372 1.575,4.85948 3.5,8.3017 2.85614,5.10726 3.5,7.30487 3.5,11.9461 0,5.15872 -0.3116,5.98039 -3.3514,8.83752 -1.84328,1.7325 -5.20049,4.37056 -7.46047,5.86235 -2.25999,1.4918 -5.03265,4.52272 -6.16146,6.73538 -2.7195,5.33066 -6.04869,7.38382 -11.83107,7.29641 -2.57125,-0.0389 -6.19709,0.56529 -8.05742,1.34259 -1.86034,0.7773 -5.74752,1.41327 -8.63818,1.41327 -2.89066,0 -6.87125,0.675 -8.84576,1.5 -1.9745,0.825 -5.86891,1.5 -8.65424,1.5 -2.78533,0 -6.67974,0.675 -8.65424,1.5 -1.97451,0.825 -5.955104,1.5 -8.845774,1.5 -2.89066,0 -6.87125,0.675 -8.84575,1.5 -3.526111,1.4733 -10.770391,1.88837 -13.582692,0.77824 z m 12.178442,-4.93463 c 0.4125,-0.2539 0.75,-1.11009 0.75,-1.90263 0,-0.79254 0.765,-1.44098 1.7,-1.44098 1.32222,0 1.43334,-0.26667 0.5,-1.2 -0.66,-0.66 -1.18999,-1.8975 -1.17776,-2.75 0.0156,-1.08606 0.59167,-0.80892 1.9247,0.9259 1.04635,1.36175 1.82385,2.93675 1.72776,3.5 -0.10351,0.60682 1.99364,0.96586 5.14689,0.88117 6.512794,-0.17493 10.814554,-3.29994 9.058734,-6.58071 -0.57329,-1.07121 -0.84502,-2.14499 -0.60383,-2.38617 0.67898,-0.67898 2.855,2.2992 3.14918,4.3101 0.32476,2.2199 2.47851,2.69113 8.30587,1.81726 3.18994,-0.47836 4.63796,-1.21449 4.98278,-2.53309 0.39898,-1.52568 0.92779,-1.69083 2.95099,-0.92161 5.31681,2.02144 14.3347,0.44448 14.3347,-2.50671 0,-0.99871 0.57967,-1.28198 1.75,-0.85519 1.52329,0.5555 1.4909,0.33819 -0.25,-1.67748 -1.31405,-1.52145 -1.51004,-2.1594 -0.57144,-1.86005 0.7857,0.25059 1.9107,1.32883 2.5,2.3961 0.58929,1.06726 1.44354,2.21342 1.89832,2.54701 0.71659,0.52563 9.74047,-0.67971 10.16433,-1.35768 0.0856,-0.13687 0.62262,-2.38635 1.19345,-4.99885 0.80168,-3.66901 0.75595,-4.75 -0.20095,-4.75 -0.68135,0 -1.79902,-0.675 -2.48371,-1.5 -1.25716,-1.51479 -6.50195,-2.01209 -9.41821,-0.89301 -0.86999,0.33384 -1.58179,1.65085 -1.58179,2.92667 0,3.19232 -2.93549,3.62722 -6,0.88892 -2.05997,-1.84069 -3.19653,-2.11672 -6.45728,-1.56821 -3.1266,0.52594 -4.08041,1.18725 -4.54385,3.1504 -0.7572,3.20759 -3.59674,3.72145 -6.33808,1.14698 -1.72302,-1.61813 -3.01081,-1.91517 -6.35637,-1.46613 -3.60664,0.48407 -4.23831,0.93048 -4.5,3.1802 -0.39509,3.3966 -3.30618,3.95088 -6.245834,1.18923 -1.85784,-1.74535 -2.99601,-2.00874 -6.35753,-1.47121 -3.47761,0.55609 -4.18989,1.0888 -4.72727,3.53545 -0.77354,3.52192 -3.84552,3.87816 -6.386187,0.74058 -1.504472,-1.85795 -2.352263,-2.04727 -6.429647,-1.43583 -2.58317,0.38737 -4.515798,1.01293 -4.294731,1.39014 0.833211,1.42169 -1.368988,5.18582 -3.033956,5.18582 -1.283335,0 -0.70583,1.05898 2.217776,4.06678 3.777563,3.88634 4.152604,4.03731 8.452948,3.40262 2.475,-0.36528 4.837497,-0.87188 5.249997,-1.12579 z m 36.750014,-11.34361 c -0.68847,-1.28642 -0.71358,-2 -0.0704,-2 0.55,0 1.48167,0.9 2.07037,2 0.68847,1.28642 0.71358,2 0.0704,2 -0.55,0 -1.48167,-0.9 -2.07037,-2 z m -60.270844,5.39583 c -0.332292,-0.33229 -1.194792,-0.36781 -1.916667,-0.0789 -0.797733,0.31922 -0.560776,0.55618 0.604167,0.60416 1.054166,0.0434 1.644791,-0.19293 1.3125,-0.52522 z m -13.04699,-2.74467 c 0.376469,-0.37647 0.15199,-1.21699 -0.498844,-1.86783 -0.650833,-0.65083 -1.183333,-2.60262 -1.183333,-4.33731 0,-1.96245 -0.92707,-4.1543 -2.453955,-5.80184 -1.349676,-1.45632 -3.200949,-4.22203 -4.113942,-6.14602 -0.912992,-1.92399 -2.283712,-3.49816 -3.046044,-3.49816 -0.762333,0 -1.386059,-0.92045 -1.386059,-2.04545 0,-1.125 -1.125,-3.17046 -2.5,-4.54546 -1.375,-1.375 -2.5,-3.10731 -2.5,-3.84958 0,-0.74228 -1.117226,-2.40932 -2.482723,-3.70455 -1.365498,-1.29523 -2.490498,-3.06402 -2.5,-3.93065 -0.0095,-0.86662 -1.070186,-2.56484 -2.357074,-3.77381 -2.161618,-2.03073 -2.55383,-2.08708 -5.150411,-0.73996 -3.512124,1.82211 -4.475055,3.31572 -4.494479,6.97143 -0.01636,3.07818 1.149985,5.29889 9.778417,18.61803 3.028568,4.675 6.655051,10.3 8.058852,12.5 4.808665,7.53602 5.128176,7.74926 10.894671,7.27105 2.887739,-0.23947 5.558454,-0.74342 5.934924,-1.11989 z m 21.12785,-2.83489 c 0.320225,-2.772 0.504046,-2.85831 9.300442,-4.36719 3.118519,-0.53492 3.901993,-0.2487 5.749998,2.10066 l 2.13953,2.71998 v -3.03221 c 0,-2.95484 0.1689,-3.06161 6.62064,-4.18513 6.3869,-1.11223 6.6768,-1.07274 8.211704,1.11862 l 1.59106,2.27156 0.5683,-2.40735 c 0.57965,-2.45544 2.10869,-3.16636 9.27535,-4.31253 2.9824,-0.47698 4.15452,-0.18656 5.62732,1.3943 1.85295,1.98891 1.86267,1.98723 2.46858,-0.42693 0.46707,-1.86092 1.48239,-2.56817 4.37269,-3.04587 6.03884,-0.99809 8.93172,-0.74992 10.28645,0.88242 1.11265,1.34067 1.40491,1.24932 2.39952,-0.75 0.88588,-1.78077 2.39114,-2.46648 6.91136,-3.14841 5.1472,-0.77653 6.01862,-0.64715 7.97293,1.18368 1.62538,1.5227 2.6374,1.80637 3.90431,1.0944 1.56926,-0.8819 1.71495,-4.38569 1.76789,-42.51707 l 0.0577,-41.55596 -2.76789,0.55258 C 149.51387,68.7094 57.761425,82.26027 55.9254,82.25475 54.90593,82.25175 52.390107,81.78213 50.334681,81.2113 46.999809,80.28514 45.223742,78.2502 33.834681,62.30637 26.815107,52.4795 20.897133,44.611235 20.683628,44.82135 c -0.654165,0.64377 2.113551,74.90495 2.811612,75.43897 1.279889,0.97911 9.076579,12.99526 9.076579,13.98869 0,0.55622 0.379138,1.01131 0.842529,1.01131 0.463392,0 1.700892,1.6875 2.75,3.75 1.049109,2.0625 2.41096,4.07684 3.026335,4.4763 0.615375,0.39947 1.709224,2.15156 2.430776,3.89354 0.721552,1.74198 2.355563,4.29336 3.631136,5.66972 1.364097,1.47189 2.332322,3.7808 2.351027,5.60646 0.0639,6.23686 4.108289,8.64561 13.968197,8.31918 6.2456,-0.20678 6.512134,-0.32024 6.810027,-2.89893 z m 99.939984,-17.25014 c 3.54608,-1.10465 3.16143,-8.14424 -0.7113,-13.01743 l -2.9613,-3.72631 -0.2887,9.25791 c -0.15878,5.09186 -0.7387,9.40752 -1.2887,9.59036 -0.65573,0.21799 -0.77871,-4.74606 -0.35722,-14.41911 0.36535,-8.38457 0.21101,-17.74998 -0.35759,-21.69857 -1.11569,-7.74788 -0.002,-31.8502 1.27358,-27.55297 0.469,1.58047 0.74187,-0.44248 0.74187,-5.5 0,-5.42033 -0.25817,-7.19386 -0.80064,-5.5 -0.70399,2.19819 -0.82116,2.01711 -0.97061,-1.5 -0.0935,-2.2 -0.51699,-4.88805 -0.94114,-5.97344 -1.2661,-3.23995 -2.17741,20.71626 -2.04581,53.77991 0.067,16.84026 -0.23557,31.198 -0.67244,31.90609 -0.43686,0.70809 0.98867,-0.11499 3.16785,-1.82905 2.17918,-1.71407 4.97465,-3.43189 6.21215,-3.81739 z m -4.06689,-19.75363 c -0.31922,-0.79773 -0.55618,-0.56078 -0.60416,0.60417 -0.0434,1.05416 0.19292,1.64479 0.52522,1.3125 0.33229,-0.3323 0.36781,-1.1948 0.0789,-1.91667 z m 0,-13 c -0.31922,-0.79773 -0.55618,-0.56078 -0.60416,0.60417 -0.0434,1.05416 0.19292,1.64479 0.52522,1.3125 0.33229,-0.3323 0.36781,-1.1948 0.0789,-1.91667 z m -143.977388,-7.0625 c -0.238353,-1.2375 -0.433369,-0.225 -0.433369,2.25 0,2.475 0.195016,3.4875 0.433369,2.25 0.238353,-1.2375 0.238353,-3.2625 0,-4.5 z M 178.4819,105.92226 c 1.32553,-0.63907 3.35053,-2.43089 4.5,-3.98182 1.90927,-2.57613 2.11673,-4.39861 2.40001,-21.08347 l 0.31007,-18.2636 -3.69096,-4.41652 c -2.51161,-3.00534 -4.32311,-4.31064 -5.66938,-4.08515 -1.22121,0.20455 -1.72264,-0.0825 -1.3101,-0.75 0.39982,-0.64692 -0.25934,-1.12891 -1.64069,-1.19969 -1.93546,-0.0992 -1.82367,-0.24181 0.69098,-0.88168 2.71871,-0.6918 2.76559,-0.76752 0.5,-0.80757 -1.375,-0.0243 -4.525,0.31613 -7,0.75652 l -4.5,0.80071 4,0.2373 c 3.55584,0.21094 3.22271,0.37924 -3,1.51567 -3.85,0.70312 -7.50663,0.99016 -8.12584,0.63788 -0.61921,-0.35228 -2.41352,-2.21551 -3.98735,-4.14051 -1.57382,-1.925 -7.72695,-9.012503 -13.67361,-15.750003 -5.94666,-6.7375 -10.58051,-12.25 -10.29745,-12.25 0.28306,0 2.21782,1.445885 4.29945,3.213079 3.4036,2.889462 3.533,2.930252 1.2848,0.404986 -4.64836,-5.22121 -10.81235,-7.010906 -19.5,-5.661763 l -5,0.776472 4,0.21256 c 2.2,0.116909 3.55,0.387941 3,0.602295 -1.38376,0.539298 -87.537892,12.482838 -88.899684,12.324156 -0.60518,-0.07052 1.599673,-0.729252 4.899673,-1.463851 l 6,-1.335635 -5.934933,0.558912 c -3.264213,0.307403 -6.958743,0.948165 -8.210066,1.423918 -3.179417,1.208812 -6.370004,4.612315 -6.276054,6.694871 0.04716,1.045438 0.282017,1.246741 0.583334,0.5 0.277412,-0.6875 0.876888,-1.25 1.332168,-1.25 0.45528,0 6.719613,8.271423 13.920741,18.380933 7.201128,10.10952 13.774352,18.94645 14.607166,19.63762 4.072128,3.37957 8.897837,3.03196 56.555935,-4.07379 25.61805,-3.81962 48.24937,-6.94476 50.29181,-6.94476 2.26196,0 4.50817,-0.74032 5.74644,-1.89394 1.74912,-1.62955 1.85326,-2.18158 0.74604,-3.95452 -0.70777,-1.13332 -0.97071,-2.37674 -0.5843,-2.76315 0.88441,-0.88441 9.09561,-2.25978 13.72173,-2.29837 5.44298,-0.0454 1.55438,1.56812 -5.78736,2.40141 -5.19859,0.59004 -6.08838,0.95336 -5.13833,2.0981 0.63258,0.76222 0.86554,2.51398 0.51831,3.89748 -0.5343,2.12879 -0.28382,2.51507 1.63833,2.52664 4.21772,0.0254 6.29935,1.08701 8.53828,4.35451 1.91576,2.79587 2.2084,4.44716 2.07234,11.69372 l -0.15843,8.43812 -0.61321,-8.68831 c -0.74255,-10.52093 -2.06993,-12.7309 -2.06993,-3.44624 0,3.71987 -0.67329,8.31019 -1.51405,10.3224 -1.35142,3.23441 -1.35158,3.80314 -0.001,5.29498 1.36145,1.50438 1.28793,1.87531 -0.73595,3.71302 -1.23668,1.12291 -3.48601,2.33429 -4.99851,2.69195 -2.40656,0.56908 -2.75,1.12735 -2.75,4.47017 v 3.81987 l 6.25,-0.92699 c 3.4375,-0.50984 7.33453,-1.44986 8.66007,-2.08892 z M 56.900556,73.80257 C 55.156362,73.04385 53.22688,71.48432 52.61282,70.33694 51.998759,69.18955 49.205239,65.21543 46.404997,61.50556 40.711867,53.96306 37.560437,47.71625 36.443805,41.760327 l -0.749931,-4 0.215398,4.25 c 0.239226,4.720133 -0.765387,5.665423 -1.769441,1.664958 -0.872618,-3.476786 0.18054,-6.414958 2.299376,-6.414958 0.952936,0 2.206134,-0.473522 2.784883,-1.052271 1.140233,-1.140233 68.28136,-10.94438 74.84774,-10.92949 2.2,0.005 5.06625,0.294466 6.36945,0.643283 3.23656,0.866309 28.12391,30.122551 28.12769,33.065421 0.005,3.80589 -3.86596,5.15931 -22.06755,7.71577 -9.58628,1.34642 -26.540524,3.82262 -37.676104,5.50266 -22.424705,3.38325 -27.261835,3.62521 -31.92476,1.59687 z m 39.98213,-4.87195 27.810874,-4.20731 -2.31087,-2.12353 c -4.15161,-3.81505 -7.4719,-3.74966 -38.387724,0.75599 -30.748052,4.48121 -33.319179,5.30773 -26.173147,8.41369 4.752174,2.06549 8.390458,1.80107 39.060867,-2.83884 z M 81.530435,61.16698 c 33.063185,-4.91402 38.369845,-4.91912 43.402035,-0.0417 l 3.37486,3.27105 6.38225,-1.10714 c 8.04902,-1.39628 12.05831,-2.95933 11.67852,-4.55296 -0.5852,-2.45553 -23.99799,-29.002152 -26.61792,-30.180768 -4.15555,-1.869436 -7.60063,-1.60677 -42.257979,3.221903 -42.687512,5.947486 -37.920382,4.548002 -37.920382,11.132272 0,4.514673 0.563281,6.322093 3.169642,10.170543 5.238615,7.73514 8.932904,12.18018 10.123003,12.18018 0.618522,0 13.518209,-1.84201 28.665971,-4.09335 z M 124.38433,21.577213 c 0.72187,-0.288871 1.58437,-0.253344 1.91667,0.07895 0.33229,0.332292 -0.25834,0.568641 -1.3125,0.52522 -1.16495,-0.04798 -1.4019,-0.284941 -0.60417,-0.604167 z m 61.99437,79.156647 c -0.30789,-0.30789 -0.86705,0.24711 -1.24258,1.23333 -0.54268,1.4252 -0.42782,1.54006 0.5598,0.5598 0.68342,-0.67834 0.99067,-1.48524 0.68278,-1.79313 z m -23.12376,-3.66103 c -0.31922,-0.79774 -0.55618,-0.56078 -0.60416,0.60416 -0.0434,1.05417 0.19292,1.64479 0.52522,1.3125 0.33229,-0.33229 0.36781,-1.19479 0.0789,-1.91666 z m 4.31689,-0.3125 c 0,-0.825 -0.675,-1.5 -1.5,-1.5 -1.56157,0 -1.98397,1.1827 -0.83333,2.33333 1.15063,1.15063 2.33333,0.72824 2.33333,-0.83333 z m 0.0757,-6.16125 c 1.33337,-1.46369 1.86181,-2.33713 1.17431,-1.94099 -1.56751,0.90322 -1.55373,0.19977 0.10573,-5.39776 1.34192,-4.52646 0.68447,-10.23909 -1.32104,-11.47856 -1.35524,-0.83759 -2.3466,5.7038 -1.8224,12.02491 0.24873,2.9995 0.0777,5.45365 -0.38003,5.45365 -0.45775,0 -0.83227,0.9 -0.83227,2 0,2.56495 0.17002,2.5284 3.07569,-0.66125 z M 19.2894,74.52408 c -0.229854,-1.52007 -0.424059,-0.51375 -0.431567,2.23625 -0.0075,2.75 0.180555,3.99368 0.417917,2.76375 0.237362,-1.22994 0.243505,-3.47994 0.01365,-5 z M 169.32183,69.571 c -0.9625,-0.25153 -2.5375,-0.25153 -3.5,0 -0.9625,0.25153 -0.175,0.45732 1.75,0.45732 1.925,0 2.7125,-0.20579 1.75,-0.45732 z m 17.37409,-9.57734 c -0.98762,-0.98027 -1.10248,-0.8654 -0.5598,0.55979 0.37553,0.98623 0.93469,1.54123 1.24258,1.23334 0.30789,-0.30789 6.4e-4,-1.1148 -0.68278,-1.79313 z m -4.12409,-5.23333 c -1.86578,-1.925 -3.74745,-3.5 -4.18148,-3.5 -0.78963,0 6.28584,6.92189 7.12765,6.97294 0.24539,0.0149 -1.08039,-1.54794 -2.94617,-3.47294 z m -164.283757,-9.25 c -0.229124,-1.512503 -0.41659,-0.275 -0.41659,2.75 0,3.025 0.187466,4.2625 0.41659,2.75 0.229125,-1.5125 0.229125,-3.9875 0,-5.5 z m 138.283757,6.43709 c 0,-0.1721 -1.4625,-1.6346 -3.25,-3.25 l -3.25,-2.93709 2.93709,3.25 c 2.73778,3.02945 3.56291,3.70965 3.56291,2.93709 z m -7,-8.000002 c 0,-0.1721 -1.4625,-1.6346 -3.25,-3.25 l -3.25,-2.937091 2.93709,3.25 c 2.73778,3.029455 3.56291,3.709653 3.56291,2.937091 z m -7,-8 c 0,-0.1721 -1.4625,-1.6346 -3.25,-3.25 l -3.25,-2.937091 2.93709,3.25 c 2.73778,3.029455 3.56291,3.709652 3.56291,2.937091 z M 43.321819,30.571001 c -0.9625,-0.251527 -2.5375,-0.251527 -3.5,0 -0.9625,0.251528 -0.175,0.457323 1.75,0.457323 1.925,0 2.7125,-0.205795 1.75,-0.457323 z m 15.75,-1.766165 c 4.4,-0.717891 6.65,-1.325285 5,-1.349765 -1.65,-0.02448 -6.6,0.542856 -11,1.260747 -4.4,0.717891 -6.65,1.325285 -5,1.349765 1.65,0.02448 6.6,-0.542856 11,-1.260747 z m 13.25,-2.233835 c -0.9625,-0.251527 -2.5375,-0.251527 -3.5,0 -0.9625,0.251528 -0.175,0.457323 1.75,0.457323 1.925,0 2.7125,-0.205795 1.75,-0.457323 z m 7,-1 c -0.9625,-0.251527 -2.5375,-0.251527 -3.5,0 -0.9625,0.251528 -0.175,0.457323 1.75,0.457323 1.925,0 2.7125,-0.205795 1.75,-0.457323 z m 11.749997,-1.253305 c 5.26454,-1.088932 0.53452,-1.182168 -5.5,-0.108412 -3.374491,0.600442 -3.74966,0.817602 -1.5,0.868247 1.65,0.03714 4.8,-0.30478 7,-0.759835 z m 9.250014,-1.746695 c -0.962504,-0.251527 -2.537504,-0.251527 -3.500014,0 -0.9625,0.251528 -0.175,0.457323 1.75001,0.457323 1.925004,0 2.712504,-0.205795 1.750004,-0.457323 z m 7,-1 c -0.9625,-0.251527 -2.5375,-0.251527 -3.5,0 -0.9625,0.251528 -0.175,0.457323 1.75,0.457323 1.925,0 2.7125,-0.205795 1.75,-0.457323 z"
       id="path3774" />
  </g>
</svg>
